PathFileType	4	(X/Y/Z)	C:/Users/opensim2020/Desktop/walking_exp_matlab/subject01_walking13_straight_01.trc																																																																																																																												
DataRate	CameraRate	NumFrames	NumMarkers	Units	OrigDataRate	OrigDataStartFrame	OrigNumFrames																																																																																																																								
100	100	6	42	mm	100	655	142																																																																																																																								
Frame#	Time	LFHD			RFHD			LBHD			RBHD			C7			T10			CLAV			STRN			RBAK			LSHO			LUPA			LELB			LFRM			LWRA			LWRB			LFIN			RSHO			RUPA			RELB			RFRM			RWRA			RWRB			RFIN			LASI			RASI			LPSI			RPSI			LTHI			LKNE			LTIB			LANK			LHEE			LTOE			RTHI			RKNE			RTIB			RANK			RHEE			RTOE			*39			*40			*41		
		X1	Y1	Z1	X2	Y2	Z2	X3	Y3	Z3	X4	Y4	Z4	X5	Y5	Z5	X6	Y6	Z6	X7	Y7	Z7	X8	Y8	Z8	X9	Y9	Z9	X10	Y10	Z10	X11	Y11	Z11	X12	Y12	Z12	X13	Y13	Z13	X14	Y14	Z14	X15	Y15	Z15	X16	Y16	Z16	X17	Y17	Z17	X18	Y18	Z18	X19	Y19	Z19	X20	Y20	Z20	X21	Y21	Z21	X22	Y22	Z22	X23	Y23	Z23	X24	Y24	Z24	X25	Y25	Z25	X26	Y26	Z26	X27	Y27	Z27	X28	Y28	Z28	X29	Y29	Z29	X30	Y30	Z30	X31	Y31	Z31	X32	Y32	Z32	X33	Y33	Z33	X34	Y34	Z34	X35	Y35	Z35	X36	Y36	Z36	X37	Y37	Z37	X38	Y38	Z38	X39	Y39	Z39	X40	Y40	Z40	X41	Y41	Z41	X42	Y42	Z42
																																																																																																																															
54	0.53	1.27029	1668.03833	-1076.91553	22.33206	1672.94482	-965.71216	-116.37338	1630.69495	-1061.35315	-96.92406	1634.68896	-942.14648	-161.58015	1439.10217	-1012.80322	-213.30977	1147.53101	-1001.94031	-21.63672	1363.73511	-1022.09106	12.71305	1207.03784	-1029.67334	-222.23068	1248.35925	-927.90869	-97.32788	1397.41724	-1176.75745	-165.96617	1225.29956	-1258.41614	-200.49913	1076.44946	-1265.72522	-158.19882	966.79279	-1288.75598	-71.02077	857.9743	-1271.15991	-126.87949	848.60718	-1290.32166	-76.88586	782.0979	-1303.41577	-74.6594	1397.1499	-867.45984	-127.34071	1202.98755	-754.50684	-118.91212	1074.91638	-745.09802	-35.00937	978.91284	-739.5766	84.22977	921.48694	-793.13214	56.36121	897.93805	-748.29828	127.3571	853.81036	-764.97028	-51.44003	935.27881	-1118.74683	-50.55451	929.40686	-900.30371	-236.13585	951.70398	-1067.03821	-235.62955	958.24347	-923.1394	5.6009	628.53503	-1197.50146	32.90339	495.89841	-1181.02173	-1.19723	309.45151	-1189.74805	5.24699	85.57836	-1142.89502	-27.02151	51.19989	-1082.77966	148.93314	66.32957	-1164.67163	-163.5984	604.18811	-860.06287	-189.18149	447.37317	-892.10004	-275.39655	293.57336	-893.49445	-341.19211	99.50013	-949.63995	-397.47232	75.52571	-1000.38873	-212.62198	33.41825	-952.72333	11.64034	1707.3446	-987.57428	1973.04138	1024.06531	-3102.10889	2012.44153	1022.09253	-3140.70996
55	0.54	14.73353	1666.03357	-1077.65015	35.84527	1670.94934	-966.06812	-103.05271	1629.24255	-1062.04285	-83.63277	1633.26965	-942.909	-149.14049	1437.745	-1013.23706	-201.06525	1146.04358	-1002.77631	-9.20501	1361.99304	-1022.67511	24.82611	1205.28333	-1030.0022	-209.97328	1247.02075	-928.23926	-84.89635	1395.73328	-1177.34924	-154.84352	1223.83057	-1258.59326	-190.70901	1075.30627	-1264.95874	-150.54288	964.96063	-1287.78308	-65.54536	854.37378	-1269.98596	-121.61932	846.14087	-1289.1073	-73.21164	778.49402	-1302.06006	-62.07353	1395.73401	-867.95123	-113.98348	1201.75073	-754.53058	-104.57092	1073.71887	-744.82373	-18.84155	979.58466	-740.30322	101.30704	925.56738	-795.06433	74.41399	901.02557	-750.10474	146.11736	858.90594	-767.36566	-38.27388	933.87122	-1118.86816	-38.7028	928.22516	-900.25806	-223.52039	949.71204	-1068.02893	-223.59915	956.61707	-924.44818	16.6163	625.44867	-1197.50269	45.59816	493.78357	-1179.28333	21.52859	307.30875	-1190.33826	42.2415	83.19219	-1145.33875	10.70609	46.32075	-1086.05151	187.39441	71.83448	-1164.14905	-155.26167	604.11591	-859.80737	-182.46771	447.24133	-891.79852	-271.37823	294.61429	-893.22632	-340.02817	101.49641	-949.31903	-396.16187	78.047	-999.98309	-212.51781	33.36853	-952.65033	25.25251	1705.45386	-988.43835	1973.08936	1023.43988	-3101.83789	2012.55261	1022.10425	-3140.72925
56	0.55	28.1843	1663.8457	-1078.54968	49.34631	1668.8916	-967.25861	-89.73355	1627.61377	-1062.87524	-70.31976	1631.7063	-943.73529	-136.56726	1436.12146	-1013.81091	-188.75951	1144.35205	-1003.5639	3.24132	1360.19287	-1023.26361	37.05318	1203.46216	-1030.38672	-197.53026	1245.5896	-928.60962	-72.40416	1393.99109	-1177.97705	-143.53381	1222.2218	-1258.77588	-180.65184	1074.07544	-1264.43225	-142.45909	963.04199	-1286.92615	-59.57544	850.75848	-1268.81165	-115.8214	843.76337	-1287.96411	-68.91788	775.08423	-1300.87585	-49.3206	1394.23291	-868.55231	-100.44595	1200.50513	-754.69086	-90.51453	1072.41553	-744.53009	-2.83149	980.216	-741.02966	118.21767	929.4837	-796.89636	92.06282	903.86816	-752.12433	165.07695	864.12061	-769.93805	-24.81003	932.34906	-1119.02527	-26.59769	926.9809	-900.24506	-210.5295	947.75922	-1069.2356	-211.2934	955.17804	-925.69653	27.06032	621.8175	-1197.27332	58.41769	491.58792	-1177.67102	44.01465	305.63892	-1190.63428	77.74955	82.07635	-1147.41772	46.96008	43.16488	-1089.04797	223.98485	78.22627	-1163.27539	-146.45729	603.80707	-859.57697	-175.57591	446.88977	-891.46558	-267.05688	295.83792	-892.80798	-338.49692	103.71675	-948.6535	-394.93246	81.00045	-999.31903	-212.51915	33.38915	-952.60321	38.8614	1703.36121	-989.30682	1973.10889	1023.38562	-3101.90161	2012.4093	1021.91608	-3140.69067
57	0.56	41.70382	1661.67371	-1079.47791	62.77217	1666.67334	-967.60529	-76.40665	1625.88147	-1063.76611	-56.9562	1630.03735	-944.56293	-124.14298	1434.37427	-1014.41925	-176.27879	1142.4552	-1004.60382	15.78872	1358.31348	-1024.00085	49.50672	1201.67822	-1030.9054	-185.03995	1243.91492	-929.09528	-59.87825	1392.125	-1178.66833	-132.12639	1220.56519	-1259.12708	-170.32707	1072.73767	-1263.98645	-133.9882	961.07422	-1286.1925	-52.95118	847.46082	-1267.80811	-109.48209	841.45264	-1287.00513	-64.03194	771.77325	-1299.67053	-36.59277	1392.6665	-869.37531	-86.99664	1199.3219	-755.02258	-76.46095	1071.16455	-744.36786	13.09438	980.7016	-741.90155	134.65848	933.14484	-798.76556	109.5631	906.65759	-754.22241	183.17134	868.8858	-772.22882	-11.15577	930.69269	-1119.18628	-14.17338	925.8548	-900.95911	-197.25204	945.76318	-1070.68738	-198.87415	953.73627	-927.21277	37.2963	617.8717	-1197.13049	71.48557	489.57339	-1176.4519	66.00605	304.46893	-1190.62561	111.16925	82.1878	-1148.77393	81.50222	41.38606	-1090.9856	258.11279	84.91013	-1162.22046	-137.43112	603.35333	-859.25848	-168.07428	446.55527	-891.08887	-262.19257	296.93552	-892.3335	-336.90762	105.73747	-948.23828	-393.55209	84.28378	-998.78735	-212.14497	33.24064	-952.41791	52.49794	1701.18103	-990.17944	1973.08972	1024.01892	-3102.01392	2012.50195	1022.11981	-3140.66016
58	0.57	55.20819	1659.4447	-1080.38611	76.26262	1664.48401	-968.58459	-63.04584	1624.09924	-1064.81555	-43.63815	1628.32312	-945.54553	-111.67902	1432.599	-1015.14142	-163.64651	1140.57092	-1005.50458	28.40544	1356.37976	-1024.81335	62.07505	1199.85925	-1031.51013	-172.48056	1242.18762	-929.711	-47.30103	1390.19849	-1179.4856	-120.64545	1218.82996	-1259.66455	-159.79109	1071.25073	-1263.79529	-125.19695	959.11731	-1285.69775	-46.08649	844.15674	-1267.04749	-102.61975	839.09576	-1286.1731	-58.42666	768.56976	-1298.65051	-23.69152	1391.1521	-870.11078	-73.46738	1198.0675	-755.55219	-62.52244	1069.90015	-744.31909	28.65797	981.17938	-742.79028	150.78502	936.51611	-800.60797	126.38392	909.05115	-756.16797	200.91019	873.33441	-774.6604	2.77848	928.88434	-1119.37756	-2.43268	924.1059	-900.70917	-183.65752	943.70258	-1072.25781	-186.35165	952.29681	-928.93433	47.55092	613.90411	-1197.25244	84.81257	487.75412	-1175.85681	87.27888	303.29709	-1190.30078	142.08855	82.91447	-1149.00598	113.60705	40.70504	-1091.64819	289.37839	91.29052	-1161.10376	-127.82875	602.76257	-859.08478	-160.18283	446.05441	-890.6853	-256.94754	298.05206	-891.85565	-335.01334	108.22241	-947.48553	-392.47949	88.26512	-997.99854	-212.05118	33.25368	-952.33069	66.01598	1698.87134	-991.3786	1973.08655	1023.36456	-3101.89575	2012.55444	1021.99908	-3140.72778
59	0.58	68.70742	1657.27258	-1081.47473	89.73317	1662.34216	-969.61005	-49.66224	1622.29163	-1065.81897	-30.3698	1626.55762	-946.64514	-99.12911	1430.70703	-1016.00568	-150.81212	1138.49792	-1006.55328	41.06273	1354.46167	-1025.68799	74.81168	1198.06982	-1032.19031	-159.74136	1240.38538	-930.31824	-34.66779	1388.2002	-1180.40686	-109.01931	1217.0448	-1260.31934	-148.99481	1069.67126	-1263.61804	-115.93148	957.09503	-1285.33496	-38.60021	840.93933	-1266.38403	-95.21581	836.80121	-1285.63843	-51.97724	765.17065	-1297.61475	-10.79569	1389.64758	-871.0415	-59.98275	1196.81104	-756.1864	-48.81681	1068.69141	-744.2735	43.93222	981.44116	-743.81354	166.70912	939.63977	-802.14301	142.83476	911.34821	-757.85419	218.22733	877.39117	-776.94855	16.92566	926.89636	-1119.41833	10.40749	922.62109	-900.37994	-169.68918	941.72858	-1073.98425	-173.71901	950.85968	-930.63782	58.09536	610.22095	-1197.65869	98.15005	486.04596	-1175.66931	107.50444	302.15289	-1189.78845	170.26056	83.78891	-1148.04602	143.23456	40.75282	-1090.44531	317.33755	96.70339	-1159.65833	-117.87176	602.12634	-858.84894	-151.79169	445.58719	-890.13806	-251.24875	299.31204	-891.30585	-333.37564	110.71692	-946.61511	-390.87418	92.02793	-997.13281	-211.78734	33.24913	-952.12079	79.67915	1696.78064	-992.3075	1973.09668	1023.5072	-3101.78662	2012.46753	1021.96796	-3140.70752
